<svg xmlns="http://www.w3.org/2000/svg" xmlns:xlink="http://www.w3.org/1999/xlink" fill="none" version="1.1" width="161.819580078125" height="23.4755859375" viewBox="0 0 161.819580078125 23.4755859375"><g style="mix-blend-mode:passthrough"><g style="mix-blend-mode:passthrough"><g><path d="M6.56994,15.5072C6.56553,15.5029,6.56124,15.4986,6.55707,15.4942C6.56068,15.499,6.56488,15.5034,6.56994,15.5072ZM6.00586,9.71018L6.00534,9.70909L6.00487,9.71017L6.00586,9.71018ZM19.7217,6.0949C19.6521,5.93056,19.5799,5.76717,19.5142,5.60117C19.4905,5.54131,19.4571,5.5225,19.3941,5.52401C19.2663,5.52704,19.1384,5.52652,19.0039,5.52597L19.0039,5.52597C18.9497,5.52575,18.8944,5.52552,18.8375,5.52552C18.928,5.44685,19.0185,5.36735,19.1098,5.28882L19.1103,5.2884C19.3151,5.11197,19.3152,5.11192,19.2253,4.86264C19.1845,4.74923,19.144,4.63568,19.0902,4.48547C19.2695,4.59243,19.4224,4.67824,19.569,4.77353C19.6366,4.81747,19.6829,4.81499,19.7444,4.76351C19.8777,4.65216,20.0177,4.54863,20.1835,4.41943C20.1417,4.60396,20.1202,4.75609,20.0712,4.89861C20.0256,5.03124,20.0638,5.10113,20.1793,5.16593C20.3108,5.23994,20.4318,5.33275,20.5868,5.43724C20.3857,5.45591,20.219,5.47802,20.0517,5.48433C19.9473,5.48818,19.9059,5.53266,19.8835,5.63001C19.8476,5.78584,19.797,5.93838,19.7526,6.09229C19.7423,6.09326,19.732,6.09408,19.7217,6.0949ZM21.5012,7.12485C21.5922,6.95062,21.6749,6.77199,21.7787,6.55849C21.5755,6.65391,21.4064,6.72613,21.2445,6.81208C21.1465,6.86412,21.0807,6.85657,21.0034,6.77282C20.8784,6.6373,20.74,6.51428,20.582,6.36133C20.61,6.59844,20.6278,6.7952,20.6587,6.99002C20.6719,7.07405,20.6422,7.1103,20.5726,7.14504C20.393,7.23469,20.2168,7.33163,20.0143,7.43899C20.2325,7.47991,20.4242,7.51904,20.6173,7.55062C20.7075,7.56545,20.7553,7.59661,20.7672,7.69918C20.7897,7.89002,20.8324,8.07854,20.8727,8.30124C20.9855,8.09721,21.0848,7.92229,21.179,7.7449C21.2125,7.68202,21.2455,7.65524,21.3249,7.67007C21.5205,7.70673,21.7187,7.72925,21.9174,7.75767C21.9227,7.71101,21.896,7.68743,21.8705,7.66496C21.8627,7.65808,21.8551,7.65129,21.8485,7.64398C21.743,7.52728,21.6381,7.40947,21.5255,7.29977C21.4662,7.24197,21.4645,7.19515,21.5012,7.12485ZM20.0991,10.6285L20.1112,10.6268C20.1324,10.6399,20.1559,10.6389,20.1794,10.6378C20.2006,10.6368,20.2217,10.6358,20.2411,10.6452C20.2096,10.6356,20.176,10.639,20.1423,10.6423C20.1329,10.6433,20.1234,10.6442,20.1139,10.6449C20.1083,10.6394,20.103,10.6339,20.0982,10.6282L20.0991,10.6285ZM20.0352,10.5638C20.0393,10.5558,20.0462,10.5469,20.0566,10.5367C20.3276,10.3788,20.5971,10.218,20.8706,10.0648C20.9471,10.0218,20.9767,9.9842,20.9593,9.88823C20.8964,9.54072,20.8473,9.19088,20.7881,8.81152C21.0525,9.04988,21.3015,9.26242,21.5356,9.49033C21.643,9.59482,21.7238,9.6091,21.8574,9.53317C22.1379,9.37377,22.4311,9.2366,22.7197,9.08997C22.7427,9.12757,22.7259,9.15548,22.7102,9.18156C22.7054,9.18948,22.7008,9.19723,22.6974,9.20502C22.5751,9.48457,22.4562,9.76589,22.3223,10.0401C22.271,10.1453,22.2924,10.2039,22.3705,10.279C22.6165,10.5149,22.855,10.7586,23.1204,11.0234C22.7331,10.9832,22.3792,10.9501,22.0264,10.9073C21.9436,10.8972,21.9053,10.9206,21.8704,10.9912C21.7334,11.2689,21.5921,11.5445,21.4505,11.8199C21.4309,11.8581,21.423,11.9057,21.3651,11.9374C21.2963,11.6094,21.2199,11.2891,21.165,10.9651C21.1408,10.8223,21.074,10.7767,20.9415,10.7606C20.7123,10.7329,20.4852,10.6888,20.2574,10.6514C20.2693,10.6569,20.2808,10.6648,20.2918,10.6756C20.232,10.6804,20.173,10.6815,20.1193,10.6501C20.1219,10.6525,20.1245,10.6549,20.127,10.6573L20.1285,10.6587C20.0756,10.6675,20.0254,10.6608,19.9692,10.6353C19.9818,10.5955,20.0069,10.5766,20.0352,10.5638ZM7.44238,10.2532C7.59591,10.7929,7.80312,11.3041,8.09081,11.7783C9.16891,13.5551,10.73,14.6238,12.7881,14.9437C13.9038,15.1172,14.9914,14.9814,16.0462,14.5818C16.1233,14.5526,16.1987,14.5365,16.2812,14.5368L16.3736,14.5371L16.3737,14.5371C16.8737,14.539,17.3736,14.5408,17.8733,14.5347C17.9766,14.5335,18.0098,14.5704,18.0321,14.6626C18.166,15.2167,18.3052,15.7695,18.4438,16.3275C18.4942,16.2955,18.5031,16.2455,18.5226,16.2036C18.7525,15.7115,18.9836,15.22,19.2081,14.7256C19.2465,14.6409,19.2903,14.6194,19.3808,14.6266C19.9543,14.672,20.5284,14.7102,21.1021,14.7518C21.1871,14.758,21.2719,14.7771,21.3567,14.7772C21.4733,14.7775,21.4616,14.8254,21.4251,14.9075C21.0681,15.7107,20.5692,16.4142,19.9307,17.0163C18.7564,18.1236,17.3591,18.7799,15.7682,19.0091C12.7155,19.4486,9.80744,18.0189,8.28608,15.4117C7.36123,13.8271,7.08302,12.1225,7.40201,10.3183C7.4026,10.3149,7.40294,10.3115,7.4033,10.3079C7.40507,10.2899,7.40707,10.2697,7.44238,10.2532ZM17.3736,13.5021C18.2699,13.5903,19.1662,13.6783,20.0625,13.7664C20.0658,13.7567,20.0692,13.7469,20.0725,13.7372C19.9981,13.6672,19.9274,13.5927,19.8483,13.5283C19.7821,13.4745,19.7745,13.4273,19.808,13.3463C20.0191,12.8368,20.2234,12.3244,20.4279,11.8122C20.431,11.8045,20.4353,11.7968,20.4397,11.7888C20.4542,11.7626,20.4698,11.7343,20.4471,11.6972C20.4065,11.7186,20.3667,11.7385,20.3278,11.7601C19.8571,12.0215,19.3852,12.2808,18.9173,12.5469C18.8387,12.5915,18.7901,12.594,18.7188,12.5331C18.3161,12.1886,17.9086,11.8494,17.5024,11.5091C17.4596,11.4732,17.4213,11.4293,17.3562,11.4097C17.3599,11.4498,17.3602,11.4812,17.3661,11.5115C17.4688,12.0353,17.5675,12.5601,17.6789,13.0821C17.7064,13.2106,17.6944,13.2919,17.5663,13.3471C17.493,13.3788,17.429,13.4318,17.3609,13.4752C17.3651,13.4841,17.3694,13.4932,17.3736,13.5021ZM19.7367,20.1796C19.7702,20.1598,19.8037,20.1399,19.8372,20.1201L19.8375,20.12L19.8371,20.12C19.883,20.0932,19.9287,20.0663,19.9746,20.0394C19.9883,20.0355,19.9975,20.0362,20.0029,20.0407C20.033,20.0132,20.0659,19.9915,20.1157,20.0067C20.1,20.0565,20.065,20.0843,20.0236,20.1062C20.0155,20.0982,20.0073,20.0901,19.9991,20.0821C19.9111,20.1791,19.8188,20.2717,19.7134,20.3504L19.7134,20.3503L19.7133,20.3504C18.9958,21.0332,18.1909,21.5942,17.323,22.0677C16.1606,22.702,14.9228,23.1182,13.6169,23.3274C12.5459,23.4991,11.4704,23.521,10.3915,23.3966C8.92864,23.2279,7.53979,22.8115,6.25008,22.1049C3.16382,20.4141,1.1319,17.8705,0.339153,14.4373C-0.554799,10.5647,0.325146,7.06853,2.90003,4.03915C4.48058,2.17956,6.49369,0.968436,8.86218,0.361158C9.8734,0.101799,10.9033,-0.0188875,11.9464,0.00239401C14.1155,0.0466046,16.1257,0.634385,17.9685,1.78688C18.7385,2.26839,19.4421,2.83091,20.0812,3.47512C20.1127,3.50683,20.1411,3.5413,20.1707,3.57452L20.1708,3.57474L20.1708,3.57446C20.2907,3.6762,20.3923,3.79497,20.4771,3.93968C20.3357,3.84843,20.1942,3.75717,20.0528,3.66591L20.0526,3.66583C19.5319,3.38313,19.0009,3.12445,18.4409,2.92578C14.7679,1.62322,10.6531,2.71915,8.12093,5.68029C7.93143,5.90176,7.75689,6.13599,7.57536,6.36432L7.57517,6.36452L7.57533,6.36449C7.42538,6.59625,7.27844,6.82994,7.123,7.05799C7.09709,7.09615,7.07971,7.1364,7.05964,7.17578C7.06626,7.18981,7.07286,7.20387,7.07952,7.218C7.0676,7.24194,7.05586,7.26588,7.04394,7.28982C7.04248,7.28827,7.04102,7.28672,7.03956,7.28516L6.97813,7.39875C6.94803,7.33392,6.97488,7.28281,7.00527,7.2326C7.0073,7.21723,7.01041,7.20233,7.01592,7.18842C7.00639,7.17841,7.0138,7.16045,7.02289,7.14175C7.17889,6.71955,7.33392,6.29694,7.49102,5.87515C7.61905,5.53126,7.74919,5.18816,7.88851,4.81846C7.89106,4.81064,7.8936,4.80281,7.89614,4.79498L7.89508,4.79539C7.74259,4.87891,7.61413,4.94934,7.48566,5.01978L7.48591,5.01941L7.48569,5.0196C6.8948,5.36944,6.30433,5.7197,5.71303,6.06899C5.51888,6.18371,5.51776,6.18281,5.34217,6.04263L5.34062,6.04139C4.72583,5.55068,4.11105,5.05997,3.49586,4.56995C3.46208,4.54304,3.43352,4.50542,3.36705,4.4969C3.4305,4.78619,3.49119,5.0656,3.55285,5.34473C3.67987,5.91892,3.80689,6.49297,3.93501,7.06702C3.93541,7.06883,3.93582,7.07064,3.93622,7.07243C3.94691,7.12008,3.95606,7.16086,3.90246,7.19553C3.44272,7.4932,2.98448,7.79292,2.5257,8.09196L2.5256,8.09201C2.25224,8.27739,1.97887,8.46278,1.67916,8.66585C1.67984,8.6701,1.68104,8.67458,1.68283,8.67933C1.68349,8.68109,1.68424,8.68277,1.68506,8.68438C2.06357,8.72144,2.41051,8.75544,2.75759,8.78904C3.25839,8.83751,3.75906,8.88831,4.26042,8.9317C4.36533,8.94076,4.41009,8.97852,4.43824,9.08328C4.64958,9.87206,4.8686,10.6587,5.08584,11.4459C5.09625,11.4838,5.11031,11.5206,5.13126,11.5823L5.13285,11.5825C5.13743,11.583,5.1416,11.583,5.14542,11.5826C5.27655,11.2822,5.39502,11.0103,5.51415,10.7386C5.71202,10.287,5.91045,9.83568,6.1086,9.38424L6.118,9.38451L6.11792,9.3844C6.12767,9.33538,6.15314,9.29213,6.21906,9.23584C6.22829,9.31534,6.19733,9.37112,6.16739,9.42504C6.16393,9.43128,6.16048,9.43749,6.15711,9.44371C6.15248,9.43666,6.14784,9.42962,6.1432,9.42257C6.14254,9.42575,6.14175,9.42899,6.14097,9.43222C6.14005,9.43603,6.13913,9.43984,6.1384,9.44355C6.03788,9.8792,5.94657,10.3168,5.89727,10.7615C5.75665,12.0307,5.86459,13.279,6.22052,14.5057C6.31925,14.8459,6.45024,15.1747,6.57011,15.5073L6.57018,15.5074C6.81447,16.0372,7.07373,16.5591,7.4033,17.0425C8.89377,19.2293,10.9291,20.6089,13.5304,21.112C15.5013,21.4931,17.4095,21.2465,19.2397,20.416C19.2599,20.4068,19.2815,20.4009,19.3023,20.3933L19.3024,20.3933L19.303,20.3931L19.3024,20.3932C19.4419,20.3114,19.5843,20.2352,19.7367,20.1794L19.7367,20.1795L19.7363,20.1798L19.7367,20.1796Z" fill-rule="evenodd" fill="#FFFFFF" fill-opacity="1"/></g></g><g style="mix-blend-mode:passthrough"><g><path d="M39.132362890625004,14.658584375L39.132362890625004,16.548284375L49.177012890625,16.548284375L49.177012890625,14.658584375L47.808412890625,14.658584375L48.812912890625,14.124984375C48.505312890625,13.666684374999999,47.890012890625,12.988684374999998,47.369012890625,12.473884375L48.429912890625,12.473884375L48.429912890625,10.521484375L45.146612890625,10.521484375L45.146612890625,8.512584375L48.850512890625,8.512584375L48.850512890625,6.509904375L39.320692890625,6.509904375L39.320692890625,8.512584375L43.005822890625,8.512584375L43.005822890625,10.521484375L39.841762890625,10.521484375L39.841762890625,12.473884375L43.005822890625,12.473884375L43.005822890625,14.658584375L39.132362890625004,14.658584375ZM45.768112890625,13.063984375C46.207512890625,13.541184375,46.747412890625,14.162684375000001,47.073912890624996,14.658584375L45.146612890625,14.658584375L45.146612890625,12.473884375L46.960912890624996,12.473884375L45.768112890625,13.063984375ZM36.005962890625,3.2893443749999998L36.005962890625,20.911384375L38.360172890625,20.911384375L38.360172890625,19.900684375L49.836212890625,19.900684375L49.836212890625,20.911384375L52.303412890625,20.911384375L52.303412890625,3.2893443749999998L36.005962890625,3.2893443749999998ZM38.360172890625,17.753584375L38.360172890625,5.411274375L49.836212890625,5.411274375L49.836212890625,17.753584375L38.360172890625,17.753584375ZM64.204712890625,3.013114375C64.361612890625,3.333284375,64.531112890625,3.716234375,64.669212890625,4.092914375L57.663112890625,4.092914375L57.663112890625,8.512584375L59.923212890624995,8.512584375L59.923212890624995,6.196014375000001L72.01441289062501,6.196014375000001L72.01441289062501,8.512584375L74.387412890625,8.512584375L74.387412890625,4.092914375L67.500612890625,4.092914375C67.293412890625,3.5153443749999997,66.96071289062499,2.831054375,66.65311289062501,2.2848743750000002L64.204712890625,3.013114375ZM71.286212890625,9.567284375C70.338212890625,10.540284375,68.931912890625,11.676584375,67.619912890625,12.611984375C67.193012890625,11.739384375,66.63421289062501,10.904484375,65.899712890625,10.188784375C66.326612890625,9.893684375,66.72841289062501,9.573484375,67.080012890625,9.259584375L71.38031289062499,9.259584375L71.38031289062499,7.307184375L60.519612890625,7.307184375L60.519612890625,9.259584375L63.878212890625,9.259584375C62.120412890625005,10.251584375,59.829012890624995,11.004884375,57.625412890625,11.463184375C58.014712890625,11.896384375,58.592212890625,12.869384375,58.824512890625,13.327684375C60.620012890625,12.831784375,62.509612890625,12.134884375,64.185812890625,11.243484375C64.380512890625,11.444384375,64.550012890625,11.657784375,64.725712890625,11.877484375C63.030712890625,13.051484375000001,59.885512890625,14.300784375,57.474812890625,14.815584375C57.895412890624996,15.311484375,58.360012890625,16.127684375,58.629912890625,16.642484375C60.827212890625,15.951884374999999,63.683612890625,14.658584375,65.610912890625,13.409284374999999C65.730212890625,13.647884375,65.824412890625,13.905284375,65.899712890625,14.162684375000001C63.972412890625,15.832584375,60.249612890625,17.540184375,57.204812890625,18.255884375C57.644312890625,18.770684375,58.146512890625004,19.599284375,58.397612890625,20.183184375C60.965312890625,19.392184375,64.010112890625,17.954484375,66.232412890625,16.385084375C66.232412890625,17.320484375,66.000212890625,18.073784375,65.667412890625,18.393984375C65.397512890625,18.808284375,65.071012890625,18.871084375,64.63161289062501,18.871084375C64.167012890625,18.871084375,63.570612890625,18.845984375,62.854912890625,18.770684375C63.281812890625005,19.410984375,63.470212890625,20.333884375,63.489012890625,20.967884375C64.066612890625,20.986784375,64.63161289062501,21.005584375,65.071012890625,20.986784375C66.07551289062499,20.967884375,66.69071289062501,20.779584375,67.368712890625,20.082684375C68.373212890625,19.235184375,68.812712890625,16.962584375,68.272812890625,14.576984374999999L68.869212890625,14.200384374999999C69.836012890625,16.924984375,71.38031289062499,19.040584375,73.696912890625,20.158084375C74.023312890625,19.580484375,74.695112890625,18.689084375,75.216112890625,18.255884375C73.000012890625,17.339284375,71.455712890625,15.336684375,70.683512890625,13.013784375C71.556112890625,12.417384375,72.422512890625,11.758184375,73.194612890625,11.142984375L71.286212890625,9.567284375ZM93.734312890625,3.2642243750000004C93.11911289062499,4.243584375,92.42221289062499,5.172714375,91.668912890625,6.020224375L91.668912890625,4.896484375L87.54431289062501,4.896484375L87.54431289062501,2.4857643749999996L85.133612890625,2.4857643749999996L85.133612890625,4.896484375L80.751612890625,4.896484375L80.751612890625,7.018384375L85.133612890625,7.018384375L85.133612890625,8.914384375L79.00011289062499,8.914384375L79.00011289062499,11.061384375L85.824212890625,11.061384375C83.570412890625,12.593184375,81.084412890625,13.861284375,78.479012890625,14.821884375C78.96241289062499,15.317784374999999,79.753412890625,16.309684375,80.079912890625,16.849584375C81.37311289062501,16.309684375,82.660112890625,15.675684375,83.915712890625,14.978784375L83.915712890625,17.665784375C83.915712890625,19.969684375,84.763212890625,20.622584375,87.795412890625,20.622584375C88.448312890625,20.622584375,91.650112890625,20.622584375,92.328112890625,20.622584375C94.870612890625,20.622584375,95.58631289062501,19.869284375,95.893912890625,16.950084375C95.259912890625,16.811984375,94.255412890625,16.447784375,93.715512890625,16.071184375C93.577412890625,18.180484375,93.389012890625,18.557184375,92.171112890625,18.557184375C91.342412890625,18.557184375,88.624112890625,18.557184375,87.964912890625,18.557184375C86.558712890625,18.557184375,86.326412890625,18.419084375,86.326412890625,17.646884375L86.326412890625,16.548284375C89.107512890625,15.933084375,92.114612890625,15.079284375,94.468812890625,14.099884374999998L92.560412890625,12.373484375C91.034812890625,13.107984375000001,88.680612890625,13.924084375,86.326412890625,14.539384375000001L86.326412890625,13.528584375000001C87.48781289062501,12.768984375,88.605312890625,11.952884375,89.66621289062499,11.061384375L96.571912890625,11.061384375L96.571912890625,8.914384375L92.077012890625,8.914384375C93.502012890625,7.539484375000001,94.776512890625,6.020224375,95.893912890625,4.362864375L93.734312890625,3.2642243750000004ZM87.54431289062501,8.914384375L87.54431289062501,7.018384375L90.746012890625,7.018384375C90.105712890625,7.671284375000001,89.415112890625,8.324184375,88.699412890625,8.914384375L87.54431289062501,8.914384375ZM100.694912890625,14.539384375000001L100.694912890625,16.761684375L109.433712890625,16.761684375L109.433712890625,20.986784375L111.825612890625,20.986784375L111.825612890625,16.761684375L118.442512890625,16.761684375L118.442512890625,14.539384375000001L111.825612890625,14.539384375000001L111.825612890625,11.481984375L116.935812890625,11.481984375L116.935812890625,9.316084375L111.825612890625,9.316084375L111.825612890625,6.905414374999999L117.400412890625,6.905414374999999L117.400412890625,4.670484375L106.445512890625,4.670484375C106.677712890625,4.136854375,106.891212890625,3.596954375,107.079512890625,3.0382243750000004L104.706512890625,2.404154375C103.877812890625,4.996934375,102.377412890625,7.489284375,100.638412890625,9.021084375C101.216012890625,9.378884375,102.201612890625,10.132284375,102.647312890625,10.534084375C103.570212890625,9.611184375,104.480512890625,8.343084375,105.290312890625,6.905414374999999L109.433712890625,6.905414374999999L109.433712890625,9.316084375L103.764812890625,9.316084375L103.764812890625,14.539384375000001L100.694912890625,14.539384375000001ZM106.081312890625,14.539384375000001L106.081312890625,11.481984375L109.433712890625,11.481984375L109.433712890625,14.539384375000001L106.081312890625,14.539384375000001ZM130.055112890625,2.492044375C130.036212890625,4.086634375,130.055112890625,5.900944375,129.860412890625,7.734084375L122.804112890625,7.734084375L122.804112890625,10.119684375L129.477512890625,10.119684375C128.705312890625,13.559984374999999,126.872212890625,16.843284375,122.433712890625,18.889884375C123.111712890625,19.404684375,123.802312890625,20.258484375,124.172712890625,20.898884375C128.27841289062502,18.871084375,130.362712890625,15.769784375,131.423612890625,12.429984375C132.924112890625,16.303384375,135.165212890625,19.228884375,138.674212890625,20.898884375C139.03921289062498,20.220884375,139.811212890625,19.166184375,140.388212890625,18.651384375C136.766212890625,17.138384375,134.43081289062502,13.999484375000002,133.137512890625,10.119684375L139.968212890625,10.119684375L139.968212890625,7.734084375L132.34651289062498,7.734084375C132.54111289062502,5.900944375,132.55991289062501,4.105464375,132.578812890625,2.492044375L130.055112890625,2.492044375ZM151.925212890625,12.429984375L151.925212890625,13.629084375000001L144.555212890625,13.629084375000001L144.555212890625,15.744684374999999L151.925212890625,15.744684374999999L151.925212890625,18.205684375C151.925212890625,18.462984375,151.831212890625,18.557184375,151.442212890625,18.557184375C151.040212890625,18.582284375,149.609212890625,18.582284375,148.37821289062498,18.519484375C148.72421289062498,19.141084375,149.169212890625,20.101584375,149.320212890625,20.760784375C150.959212890625,20.760784375,152.17721289062501,20.723084375,153.081212890625,20.390384375C154.01021289062498,20.063884375,154.299212890625,19.467484375,154.299212890625,18.268384375L154.299212890625,15.744684374999999L161.819212890625,15.744684374999999L161.819212890625,13.629084375000001L154.299212890625,13.629084375000001L154.299212890625,13.264884375000001C155.956212890625,12.486484375,157.519212890625,11.438084375,158.693212890625,10.358284375L157.230212890625,9.196884375L156.747212890625,9.316084375L148.008212890625,9.316084375L148.008212890625,11.325084375L154.12321289062498,11.325084375C153.432212890625,11.745684375,152.66021289062502,12.141184375,151.925212890625,12.429984375ZM151.404212890625,3.107284375C151.888212890625,3.885744375,152.39021289062498,4.890204375,152.66021289062502,5.6686643750000005L149.40221289062498,5.6686643750000005L150.130212890625,5.304544375000001C149.822212890625,4.544924375,149.050212890625,3.4651243750000003,148.37821289062498,2.6866643750000003L146.407212890625,3.584404375C146.891212890625,4.205914375,147.412212890625,4.984374375,147.757212890625,5.6686643750000005L144.806212890625,5.6686643750000005L144.806212890625,10.050684375L146.966212890625,10.050684375L146.966212890625,7.708984375L159.33321289062502,7.708984375L159.33321289062502,10.050684375L161.606212890625,10.050684375L161.606212890625,5.6686643750000005L158.793212890625,5.6686643750000005C159.33321289062502,4.965544375,159.892212890625,4.168244375,160.413212890625,3.3897843749999996L158.021212890625,2.6238843750000003C157.632212890625,3.5467343749999998,156.979212890625,4.726984375,156.364212890625,5.6686643750000005L153.834212890625,5.6686643750000005L154.97021289062502,5.210374375000001C154.719212890625,4.387974375,154.085212890625,3.1888943750000003,153.45121289062502,2.309984375L151.404212890625,3.107284375Z" fill="#FFFFFF" fill-opacity="1"/></g></g></g></svg>