<?xml version="1.0" standalone="no"?>
<!DOCTYPE svg PUBLIC "-//W3C//DTD SVG 1.1//EN" "http://www.w3.org/Graphics/SVG/1.1/DTD/svg11.dtd" >
<svg xmlns="http://www.w3.org/2000/svg">
  <metadata>Created by iconfont</metadata>
  <defs>
  <font id="uc-font" horiz-adv-x="1024">
    <font-face
      font-family="uc-font"
      font-weight="400"
      font-stretch="normal"
      units-per-em="1024"
      ascent="896"
      descent="-128"
    />
      <missing-glyph />
      
      <glyph glyph-name="next" unicode="&#58880;" d="M692.35205688-11.5078125c8.70117188 0 18.19335938 3.1640625 24.52148438 10.28320313L1077.57666626 359.47851562000005a34.85412598 34.85412598 0 0 1 0 49.04296876L716.87354126 769.22460938a34.85412598 34.85412598 0 0 1-49.04296875-1e-8c-14.23828125-13.44726563-14.23828125-35.59570313 0-49.83398437L1003.22119751 384 667.83057251 48.609375c-14.23828125-14.23828125-14.23828125-36.38671875 0-49.83398438 6.328125-7.11914063 15.8203125-10.28320313 24.52148437-10.28320312zM151.29736938 349.1953125h851.92382813A35.10131836 35.10131836 0 0 1 1038.02588501 384a34.60693359 34.60693359 0 0 1-34.8046875 34.8046875H151.29736938A34.60693359 34.60693359 0 0 1 116.49268188 384c0-18.984375 15.8203125-34.8046875 34.8046875-34.8046875z"  horiz-adv-x="1257" />
      
      <glyph glyph-name="prev" unicode="&#58881;" d="M512-11.5078125c-8.70117188 0-18.19335938 3.1640625-24.52148438 10.28320313L126.77539062 359.47851562000005a34.85412598 34.85412598 0 0 0 1e-8 49.04296876L487.47851562 769.22460938a34.85412598 34.85412598 0 0 0 49.04296876-1e-8c14.23828125-13.44726563 14.23828125-35.59570313 0-49.83398437L201.13085937 384l335.39062501-335.390625c14.23828125-14.23828125 14.23828125-36.38671875-1e-8-49.83398438-6.328125-7.11914063-15.8203125-10.28320313-24.52148437-10.28320312z m541.0546875 360.703125H201.13085937A35.10131836 35.10131836 0 0 0 166.32617187 384c0 19.77539063 15.8203125 34.8046875 34.80468751 34.8046875h851.92382812A34.60693359 34.60693359 0 0 0 1087.859375 384a35.10131836 35.10131836 0 0 0-34.8046875-34.8046875z"  horiz-adv-x="1257" />
      
      <glyph glyph-name="qq" unicode="&#58925;" d="M550.744931 61.193966 550.744931 61.193966c-11.183713 0-16.754592 0-22.327518 0-5.53404 0-11.144828 0-16.718777 0l-5.572926 0c-5.571902 0-16.717753 0-22.289656-5.53404-22.290679-22.326495-61.298088-33.475416-111.453395-33.475416-33.434483 0-61.298088 5.610788-89.163739 16.7198-22.289656 11.143805-33.435507 22.326495-33.435507 39.009456 0 16.717753 11.143805 27.862581 39.009456 39.045271 16.717753 5.535063 22.289656 11.106965 22.289656 22.326495 0 11.106965 0 22.25384-5.572926 27.863604-11.144828 11.034311-16.718777 27.788903-27.863604 38.896892-5.572926 11.144828-16.71673 16.755616-27.861558 16.755616l0 0c-11.144828 0-16.717753-5.608741-27.863604-11.220552-11.143805-11.106965-16.717753-16.644075-22.290679-16.644075l0 0c-5.572926 0-11.106965 16.644075-11.106965 44.505633 0 27.863604 5.535063 61.336974 11.070126 94.810343 11.145851 33.398668 27.862581 61.261249 55.725162 89.124853 5.574972 5.535063 11.146874 16.717753 11.146874 27.863604 0 5.53404 0 5.53404 0 11.106965 0 16.755616 5.571902 33.435507 16.71673 50.154283 5.573949 5.572926 5.573949 11.143805 5.573949 16.717753l0 5.573949c0.035816 66.908876 22.288632 122.635061 72.480778 172.789345 44.582381 50.191122 100.30652 72.444962 167.180604 72.444962 66.872037 0 122.600269-22.290679 172.751482-72.444962 44.618197-50.154283 72.480778-105.880469 72.480778-172.715667 0 0 0 0 0-5.572926 0-5.573949 0-11.144828 5.536087-16.717753 11.141758-16.718777 16.717753-33.398668 16.717753-50.154283 0-5.572926 0-5.572926 0-11.106965 0-11.144828 0-22.326495 11.143805-27.862581 27.863604-27.862581 44.581358-55.726186 55.726186-89.124853 11.144828-33.474392 16.717753-66.944691 11.144828-94.810343 0-27.862581-5.573949-38.97057-16.681938-44.50768-5.573949 0-11.183713 5.535063-22.328541 16.645099-5.533017 5.572926-16.718777 11.219529-27.861558 11.219529l-5.536087 0c-11.184737 0-22.325471-5.606695-27.861558-16.753569-5.573949-16.71673-16.754592-27.863604-27.863604-38.969547-5.572926-5.608741-11.18269-16.754592-5.572926-27.863604 0-11.220552 11.145851-16.753569 16.682961-22.326495 27.826765-11.219529 39.010479-22.364357 39.010479-39.08211 0-16.680914-11.183713-27.863604-33.43653-39.008432-22.289656-11.106965-55.724139-16.7198-89.164762-16.7198-50.15326 0-83.58979 11.184737-111.452371 33.474392 5.571902 0-5.572926 5.572926-11.106965 5.572926l0 0L550.744931 61.193966zM678.880263-44.724365c55.726186 0 100.30652 11.143805 133.74305 33.398668 33.435507 22.326495 55.724139 50.191122 55.724139 89.163739 0 22.291702-5.53404 39.046295-16.678868 55.726186 5.571902 0 16.678868 0 22.287609 5.608741 33.435507 11.106965 50.15633 38.97057 55.727209 83.591837 5.571902 38.9675 0 83.58979-16.681938 133.706211-11.18269 39.046295-33.435507 72.444962-61.297065 105.880469l0 0c0 27.862581-5.573949 50.154283-16.7198 78.015841 0 83.590813-27.861558 156.034752-89.124853 217.370703C684.450119 819.036118 612.004133 846.901769 528.418436 846.901769c-83.590813 0-156.034752-27.862581-217.334887-89.124853-55.764048-61.33595-89.163739-133.781936-89.163739-217.370703-11.143805-22.290679-16.717753-50.154283-16.717753-78.016865l0-5.571902c-33.434483-27.863604-50.154283-66.87306-61.298088-100.305497-16.718777-50.118468-22.290679-94.737688-16.718777-133.708258 5.573949-44.61922 27.863604-72.482825 55.726186-83.590813 5.572926 0 16.718777-5.608741 22.290679-5.608741-11.144828-16.681938-16.718777-33.43653-16.718777-55.726186 0-33.435507 16.718777-66.872037 55.727209-89.163739 33.435507-22.291702 78.015841-33.435507 128.169101-33.435507 55.725162 0 105.880469 11.142781 139.316999 39.007409l27.863604 0c39.045271-27.862581 83.590813-39.007409 139.316999-39.007409l0 0L678.880263-44.724365z"  horiz-adv-x="1024" />
      
      <glyph glyph-name="qq2" unicode="&#58967;" d="M512 896c-282.767 0-511.979-229.221-511.979-512s229.211-512 511.979-512 511.979 229.221 511.979 512-229.211 512-511.979 512zM793.886 224.42700000000002c-13.223-12.342-35.924 1.102-57.744 31.297-9.477-25.566-21.819-49.149-36.144-70.309 30.855-11.02 50.692-28.212 50.692-47.609 0-33.501-59.287-60.611-132.458-60.611-43.418 0-81.767 9.477-106.009 24.244-24.023-14.767-62.593-24.244-106.009-24.244-73.172 0-132.458 27.109-132.458 60.611 0 19.175 19.836 36.586 50.692 47.609-14.546 21.159-26.668 44.742-36.144 70.309-21.819-29.975-44.519-43.641-57.744-31.297-18.073 16.971-11.241 76.922 15.647 133.785 6.171 13.004 12.783 24.685 19.615 34.823 3.747 165.303 112.622 297.987 246.181 297.987h0.441c133.559 0 242.435-132.462 246.181-297.987 6.833-10.139 13.444-21.821 19.615-34.823 26.67-56.864 33.723-116.814 15.65-133.785z"  horiz-adv-x="1024" />
      
      <glyph glyph-name="call2" unicode="&#58924;" d="M511.990509 895.000976C229.497631 895.000976 0.502509 665.990868 0.502509 383.489249 0.502509 101.00636099999997 229.492636-127.99853700000006 511.990509-127.99853700000006 794.492129-127.99853700000006 1023.497241 101.01510199999996 1023.497241 383.489249 1023.497241 665.985873 794.488382 895.000976 511.990509 895.000976l0 0zM273.14126 262.035356c79.399961 63.843902 101.609522 32.458302 137.639337-3.571512 25.219122-25.101737 88.848234 27.419473 143.868254 82.37081 54.971317 54.966322 107.536234 118.649132 82.312117 143.824546-35.971122 36.02482-67.380449 58.2144-3.541541 137.664312 63.790205 79.423688 106.346146 18.409522 141.298263-16.497639C814.942158 565.5576980000001 776.814392 415.410576 628.44928 267.010498 480.077924 118.65412700000002 329.907075 80.46392200000003 289.633904 120.762068c-34.927141 34.902166-95.8976 77.4144-16.492644 141.273288z"  horiz-adv-x="1024" />
      
      <glyph glyph-name="weixin2" unicode="&#59059;" d="M579.800805 384.131568c-11.668045 0-23.34121-10.835638-23.34121-24.174642 0-10.837685 11.667022-21.675371 23.34121-21.675371 17.512307 0 30.015832 10.837685 30.015832 21.675371C609.816637 373.29490599999997 597.313112 384.131568 579.800805 384.131568L579.800805 384.131568zM503.098457 496.689914c18.341643 0 30.015832 11.668045 30.015832 29.181376 0 18.342667-11.673165 29.179329-30.015832 29.179329-17.508211 0-34.184015-10.837685-34.184015-29.179329C468.913418 508.356935 485.590245 496.689914 503.098457 496.689914L503.098457 496.689914zM512.269278 895.439942c-282.619393 0-511.724066-229.104674-511.724066-511.724066 0-282.617345 229.104674-511.722019 511.724066-511.722019 282.617345 0 511.722019 229.104674 511.722019 511.722019C1023.992321 666.335268 794.887647 895.439942 512.269278 895.439942L512.269278 895.439942zM415.557399 254.072177c-30.851312 0-53.362162 4.998543-82.542514 13.339005l-84.20733-42.524476 24.182833 71.705853c-59.196184 41.682854-94.216703 94.209536-94.216703 158.408359 0 113.388706 106.719204 200.09838 236.784738 200.09838 115.054546 0 217.605567-68.36803 237.614074-165.085028-8.336366 1.671983-15.842372 2.501319-22.51085 2.501319-113.388706 0-200.92874-85.038714-200.92874-187.589735 0-17.506164 2.501319-33.346488 6.670526-50.024339C429.732907 254.072177 422.226902 254.072177 415.557399 254.072177L415.557399 254.072177zM763.227477 172.36616600000002l16.671708-60.032688-63.363344 35.849855c-24.17669-4.998543-47.52302-12.503525-71.69971-12.503525-111.722867 0-200.09838 76.702348-200.09838 171.747364 0 95.046039 88.376537 171.749411 200.09838 171.749411 105.882701 0 200.92874-76.703372 200.92874-171.749411C845.764871 254.072177 809.915017 206.54915700000004 763.227477 172.36616600000002L763.227477 172.36616600000002zM338.018548 555.050619c-17.508211 0-35.849855-10.837685-35.849855-29.179329 0-17.513331 18.341643-29.186496 35.849855-29.186496 16.676827 0 30.015832 11.673165 30.015832 29.186496C368.03438 544.212933 354.695375 555.050619 338.018548 555.050619L338.018548 555.050619zM710.701818 384.131568c-12.508644 0-23.34633-10.835638-23.34633-24.174642 0-10.837685 10.837685-21.675371 23.34633-21.675371 16.671708 0 29.179329 10.837685 29.179329 21.675371C739.881147 373.29490599999997 727.373526 384.131568 710.701818 384.131568L710.701818 384.131568zM710.701818 384.131568"  horiz-adv-x="1024" />
      
      <glyph glyph-name="weixin" unicode="&#58963;" d="M804.867649 376.247706c-18.652828 0-36.709604-18.665472-36.709605-37.330944 0-18.652828 18.056776-37.3183 36.709605-37.3183 28.308878 0 45.756958 19.274168 45.756957 37.3183 0 18.06942-17.446274 37.330944-45.756957 37.330944zM612.841233 376.247706c-18.665472 0-37.330944-18.665472-37.330944-37.330944 0-18.652828 18.665472-37.3183 37.330944-37.3183 28.296234 0 45.756958 19.274168 45.756957 37.3183 0 18.06942-17.460724 37.330944-45.756957 37.330944zM904.809384 52.96693400000004c7.62044-25.079357 15.253523-50.162327 22.873963-75.24349 1.811638-7.210428 0-14.446143-6.020129-19.261525-3.001937-3.003743-7.224878-4.206685-11.442401-4.206685-3.001937 0-6.020129 1.202942-8.426013 2.393241l-89.69144 48.77515c-34.314557-8.42782-68.629115-16.259588-102.336783-16.259587-133.647597 0-252.850856 72.837606-297.390422 181.205355-9.022066-4.219329-36.724054-6.627019-43.957963-6.627019-38.521242 0-69.819413 6.627019-105.934771 13.850091h-0.60689l-13.851897 3.016386c-38.918611-19.471046-77.849865-38.945704-116.781119-58.404106-6.020129-3.003743-14.446143-2.407691-19.870221 2.40769-5.411434 4.826218-7.817318 12.038453-5.411433 19.272362 10.226815 30.889965 20.466273 61.790768 30.691281 92.693377C46.961706 302.20715800000005 0 386.487164 0 479.191378 0 653.175468 164.962024 794.642189 368.41639 794.642189c179.406361 0 338.333805-111.980188 370.240672-260.063091v-3.623276c75.853993-6.614376 147.48685-37.3183 201.062932-87.28375 54.184778-50.559695 84.2782-115.578177 84.2782-183.016993 0.001806-72.8358-42.740571-146.874542-119.18881-207.688145z m68.618277 207.093899c0 121.61095-121.002254 223.945926-264.874859 223.945926-146.282102 0-265.472718-100.537788-265.472718-223.945926s119.190616-223.933283 265.472718-223.933283c31.906867 0 64.42243 8.426014 95.722407 16.243332 1.204748 0.596052 3.01458 0.596052 4.219328 0.596052 3.003743 0 6.020129-1.190299 8.42782-2.393241 18.056776-9.831253 36.113552-19.671536 54.168522-29.500982-4.206685 14.245653-8.426014 28.494918-12.632699 42.740571-2.407691 6.614376 0 14.446143 6.020129 18.665472 71.034999 52.969192 109.556242 116.188679 108.949352 177.582079zM161.335135 184.22128999999995c26.695924 13.440079 53.379204 26.880158 80.073321 40.320237 3.612439 1.215586 7.831768 1.811638 11.4424 1.215586 6.415692-1.215586 12.833189-2.420334 19.261525-3.623276 31.906867-6.628825 61.406043-12.647149 95.707957-12.647149 10.237652 0 20.47711 0.60689 30.107872 1.217392h2.40769c-5.424077 19.261524-7.831768 38.521242-7.831767 57.186714 0 141.466721 133.040707 258.26229 297.392228 261.860279C659.788489 654.37841 521.932401 748.287372 367.820338 748.287372c-176.375524 0-319.655689-121.002254-319.65569-269.70469 0-82.466562 42.742377-154.112063 127.022384-213.097772 6.612569-4.829831 9.03471-12.647149 6.612569-19.87022-6.811254-20.464467-13.636957-40.928933-20.464466-61.3934zM299.798113 584.531903c0 27.093292-18.663666 45.758764-45.756958 45.758764-26.48279 0-54.779024-17.44808-54.779024-45.758764 0-28.281784 28.296234-45.742508 54.779024-45.742507 27.701988-0.597859 45.756958 18.05497 45.756958 45.742507zM499.063856 538.1915369999999c27.685732 0 45.756958 18.652828 45.756958 45.74612 0 27.091486-18.665472 45.744314-45.756958 45.744314-26.486402 0-54.78083-17.449886-54.78083-45.744314 0-27.687538 28.294428-45.74612 54.78083-45.74612z"  horiz-adv-x="1024" />
      
      <glyph glyph-name="call" unicode="&#58996;" d="M215.104 817.088c-24.448-9.408-45.984-24.48-66.432-44.928a2138.24 2138.24 0 0 1-42.784-44c-6.368-6.336-12.224-14.72-17.216-24.096-12.576-24.192-17.152-48.768-17.696-83.264l0.32-10.304c0.096-4.928 0.096-11.2 0.096-20.864l0.544-5.792c4.672-25.504 8.832-44.32 14.24-62.912 11.296-38.944 28.16-77.504 49.984-115.712l8.96-15.2c9.184-15.296 19.232-31.264 32-51.008l6.592-10.176c16.864-26.016 33.728-47.488 65.376-85.024l15.584-17.856c10.592-12 18.24-20.224 27.136-29.12l16.736-16.544c10.656-10.464 20.448-19.84 30.016-28.672l7.136-6.56c13.344-12.384 27.552-24.704 45.248-39.36l9.6-7.872 21.76-16.992c9.088-6.976 16.096-12.096 23.744-17.344l16.48-11.168c4.352-2.88 8.96-5.856 14.304-9.28l33.6-21.184c23.872-15.232 49.44-28.16 83.328-42.816 32.608-13.888 62.752-23.68 92.992-29.44 19.008-3.392 39.04-5.664 60.384-7.04 5.696-0.288 10.176-0.16 15.904 0.32l16.896 1.76c16.896 1.536 33.056 6.72 49.856 15.104 11.68 6.016 19.232 11.872 30.624 22.848l10.368 10.112a865.536 865.536 0 0 1 47.168 50.56 142.144 142.144 0 0 1 33.28 79.296 126.016 126.016 0 0 1-12.896 67.552 192.544 192.544 0 0 1-53.696 66.56 585.6 585.6 0 0 1-53.312 39.104c-25.024 16.832-51.392 27.392-80 30.72a129.28 129.28 0 0 1-73.824-12.832c-15.424-7.488-28.608-17.76-44.544-33.12l-13.408-13.504-6.816 3.296c-15.872 8.192-30.88 19.2-54.272 38.912l-16.512 14.112c-4.192 3.712-8.416 7.584-13.504 12.384l-18.72 17.952-27.904 28.224a1070.368 1070.368 0 0 0-70.496 81.28l-4.8 6.464a133.44 133.44 0 0 0-11.232 18.88l-1.888 4.192 3.616 3.712c14.72 15.36 22.784 24.512 31.936 36.448 21.6 28.032 29.76 61.312 24.288 96.768a181.536 181.536 0 0 1-22.72 63.04c-21.28 36.608-43.168 65.6-69.44 89.792l-6.976 6.208c-18.688 15.904-38.368 26.88-60.48 32.544l-7.936 1.76a125.024 125.024 0 0 1-70.592-5.92z m442.24-602.784l20.448 20.576c11.04 10.624 19.552 17.28 27.712 21.216 12.8 6.272 25.024 8.48 38.208 6.848 18.016-2.08 34.88-8.832 52.256-20.544 17.184-11.2 32.96-22.72 48.224-35.36 16.256-13.056 28.384-27.904 36.544-44.8 5.632-11.584 7.808-22.528 6.784-33.952-1.44-16.096-7.68-30.848-18.432-43.712-10.016-11.712-20.992-23.648-33.472-36.416l-15.04-15.04c-9.984-9.856-14.304-13.504-19.744-16.32-9.824-4.896-18.56-7.68-26.688-8.416l-17.792-1.824a48.96 48.96 0 0 0-5.76-0.128c-18.4 1.216-36.128 3.2-52.192 6.08-24.96 4.8-50.88 13.184-79.36 25.344-27.008 11.68-47.808 21.92-66.4 33.152l-41.056 25.824c-6.848 4.352-12.416 8-17.728 11.52l-15.552 10.624a767.424 767.424 0 0 0-32.192 24.448l-5.888 4.64-16.64 13.76a964.48 964.48 0 0 0-28.224 24.512l-20.192 18.656a1586.88 1586.88 0 0 0-29.824 28.864l-8.256 8.224c-11.296 11.296-20.736 21.792-39.36 43.296l-12.768 15.264c-19.776 23.808-32.416 40.224-44.064 57.728l-15.904 24.544a1409.472 1409.472 0 0 0-33.376 54.272 469.664 469.664 0 0 0-44 101.632l-1.92 6.976c-3.2 11.776-6.016 24.352-8.992 39.904l-1.312 6.848-0.192 23.2a206.08 206.08 0 0 1-0.256 6.4c0.416 23.104 3.296 38.56 10.336 52.096 2.08 3.904 4.416 7.232 6.496 9.312 14.4 15.232 28.096 29.312 42.144 43.36 14.528 14.528 28.864 24.544 44.064 30.4 9.728 3.68 19.264 4.992 28.992 3.936l6.336-1.024c15.36-2.912 29.344-10.816 44.32-24.736 21.12-19.456 39.264-43.456 57.504-74.816 7.776-13.536 12.704-27.008 14.848-40.8 2.816-18.368-0.992-33.984-11.744-47.968l-5.024-6.336c-7.648-9.376-16.288-18.592-32.64-35.456-13.76-13.76-17.44-31.2-10.88-49.728 6.272-19.328 16.704-37.792 30.976-56.32 12.48-16.064 26.048-32.352 41.472-49.952l9.504-10.72c7.808-8.768 14.848-16.32 23.872-25.664l29.664-29.984 19.808-19.008c4.096-3.84 7.68-7.168 11.2-10.336l14.176-12.32c36.32-30.912 56.8-45.824 84.704-58.24 6.88-3.2 14.528-5.44 23.52-7.392a39.68 39.68 0 0 1 33.248 8.736l5.504 5.12z"  horiz-adv-x="1024" />
      
      <glyph glyph-name="checkbox-circle" unicode="&#58916;" d="M512-4.361102220000021A388.36110222 388.36110222 0 0 0 123.63889778 384 388.36110222 388.36110222 0 0 0 512 772.36110222 388.36110222 388.36110222 0 0 0 900.36110222 384 388.36110222 388.36110222 0 0 0 512-4.361102220000021m0 873.81333333A485.45223111 485.45223111 0 0 1 26.54776889 384 485.45223111 485.45223111 0 0 1 512-101.45223110999996 485.45223111 485.45223111 0 0 1 997.45223111 384 485.45223111 485.45223111 0 0 1 512 869.45223111z"  horiz-adv-x="1024" />
      
      <glyph glyph-name="checkbox-circle-on" unicode="&#58959;" d="M512-101.45185222999999C243.88494222-101.45185222999999 26.54814777 115.88494221999997 26.54814777 384S243.88494222 869.45185223 512 869.45185223s485.45185223-217.33679445 485.45185223-485.45185223-217.33679445-485.45185223-485.45185223-485.45185223z m-48.39955001 291.27111111l343.21446002 343.26300445-68.64289223 68.64289222-274.57156779-274.62011221-137.33432889 137.33432889-68.64289109-68.64289223L463.60044999 189.81925888z"  horiz-adv-x="1024" />
      
      <glyph glyph-name="arrow-right2" unicode="&#59054;" d="M360 64c-10.752 0-20.096 3.968-28.096 11.904C323.904 83.904 320 93.24800000000005 320 104l0 560C320 674.816 323.904 684.16 331.904 692.096 339.904 700.096 349.248 704 360 704s20.096-3.904 28.096-11.904l280-280C675.968 404.16 680 394.816 680 384c0-10.752-3.968-20.096-11.904-28.096l-280-280C380.096 67.96799999999996 370.752 64 360 64z"  horiz-adv-x="1024" />
      
      <glyph glyph-name="arrow-left2" unicode="&#59094;" d="M654.6 698.2l-4.2-3.6-313-272c-10.6-9.2-17.2-23-17.2-38.4 0-15.4 6.8-29.2 17.2-38.4L649.8 74l5.2-4.6c5-3.4 11-5.4 17.4-5.4 17.4 0 31.6 14.8 31.6 33.2l0 0L704 670.8l0 0c0 18.4-14.2 33.2-31.6 33.2C665.8 704 659.6 701.8 654.6 698.2z"  horiz-adv-x="1024" />
      
      <glyph glyph-name="arrow-down2" unicode="&#59044;" d="M192 536c0 10.752 3.968 20.096 11.904 28.096C211.904 572.096 221.248 576 232 576l560 0c10.816 0 20.16-3.904 28.096-11.904C828.096 556.096 832 546.752 832 536s-3.904-20.096-11.904-28.096l-280-280C532.16 220.03200000000004 522.816 216 512 216c-10.752 0-20.096 3.968-28.096 11.904L203.904 507.904C195.968 515.904 192 525.248 192 536z"  horiz-adv-x="1024" />
      
      <glyph glyph-name="arrow-top2" unicode="&#59058;" d="M832 232c0-10.752-3.968-20.096-11.904-28.096C812.096 195.904 802.752 192 792 192l-560 0c-10.816 0-20.16 3.904-28.096 11.904C195.904 211.904 192 221.24800000000005 192 232s3.904 20.096 11.904 28.096l280 280C491.84 547.9680000000001 501.184 552 512 552c10.752 0 20.096-3.968 28.096-11.904l280-280C828.032 252.096 832 242.75199999999995 832 232z"  horiz-adv-x="1024" />
      
      <glyph glyph-name="radio-on" unicode="&#59315;" d="M512 896c-282.784 0-512-229.216-512-512s229.216-512 512-512 512 229.216 512 512-229.216 512-512 512zM512 0c-212.064 0-384 171.936-384 384s171.936 384 384 384c212.064 0 384-171.936 384-384s-171.936-384-384-384zM320 384c0 106.048 85.952 192 192 192s192-85.952 192-192c0-106.048-85.952-192-192-192s-192 85.952-192 192z"  horiz-adv-x="1024" />
      
      <glyph glyph-name="radio" unicode="&#59317;" d="M512 896c-282.784 0-512-229.216-512-512s229.216-512 512-512 512 229.216 512 512-229.216 512-512 512zM512 0c-212.064 0-384 171.936-384 384s171.936 384 384 384c212.064 0 384-171.936 384-384s-171.936-384-384-384z"  horiz-adv-x="1024" />
      
      <glyph glyph-name="checkbox-on-plain" unicode="&#59011;" d="M938.666667-128L85.333333-128c-46.933333 0-85.333333 38.4-85.333333 85.333333L0 810.666667c0 46.933333 38.4 85.333333 85.333333 85.333333l853.333333 0c46.933333 0 85.333333-38.4 85.333333-85.333333l0-853.333333C1024-89.60000000000002 985.6-128 938.666667-128zM938.666667 789.333333c0 12.8-8.533333 21.333333-21.333333 21.333333L106.666667 810.666667C93.866667 810.666667 85.333333 802.133333 85.333333 789.333333l0-810.666667c0-12.8 8.533333-21.333333 21.333333-21.333333l810.666667 0c12.8 0 21.333333 8.533333 21.333333 21.333333L938.666667 789.333333zM456.533333 183.46666700000003C450.133333 174.93333299999995 439.466667 170.66666699999996 426.666667 170.66666699999996s-23.466667 4.266667-29.866667 12.8l-170.666667 170.666667C217.6 360.53333299999997 213.333333 371.20000000000005 213.333333 384c0 23.466667 19.2 42.666667 42.666667 42.666667 12.8 0 23.466667-4.266667 29.866667-12.8l140.8-140.8 311.466667 311.466667c8.533333 8.533333 19.2 12.8 29.866667 12.8 23.466667 0 42.666667-19.2 42.666667-42.666667 0-12.8-4.266667-23.466667-12.8-29.866667L456.533333 183.46666700000003z"  horiz-adv-x="1024" />
      
      <glyph glyph-name="checkbox" unicode="&#59012;" d="M938.666667-128 85.333333-128c-46.933333 0-85.333333 38.4-85.333333 85.333333L0 810.666667c0 46.933333 38.4 85.333333 85.333333 85.333333l853.333333 0c46.933333 0 85.333333-38.4 85.333333-85.333333l0-853.333333C1024-89.6 985.6-128 938.666667-128zM938.666667 789.333333c0 12.8-8.533333 21.333333-21.333333 21.333333L106.666667 810.666667C93.866667 810.666667 85.333333 802.133333 85.333333 789.333333l0-810.666667c0-12.8 8.533333-21.333333 21.333333-21.333333l810.666667 0c12.8 0 21.333333 8.533333 21.333333 21.333333L938.666667 789.333333z"  horiz-adv-x="1024" />
      
      <glyph glyph-name="checkbox-on" unicode="&#59005;" d="M896 896l-768 0c-70.4 0-128-57.6-128-128l0-768c0-70.4 57.6-128 128-128l768 0c70.4 0 128 57.6 128 128l0 768c0 70.4-57.6 128-128 128zM448 101.50400000000002l-237.248 237.248 90.496 90.496 146.752-146.752 306.752 306.752 90.496-90.496-397.248-397.248z"  horiz-adv-x="1024" />
      
      <glyph glyph-name="menu" unicode="&#59049;" d="M65.012178 767.455345 65.012178 665.124725 959.381795 665.124725 959.381795 767.455345 65.012178 767.455345ZM64.729745 332.798874 959.269231 332.798874 959.269231 435.129494 64.729745 435.129494 64.729745 332.798874ZM64.729745 0.474047 959.269231 0.474047 959.269231 102.804666 64.729745 102.804666 64.729745 0.474047ZM64.729745 6.257773"  horiz-adv-x="1024" />
      
      <glyph glyph-name="add" unicode="&#58994;" d="M810.666667 341.333333l-256 0 0-256-85.333333 0 0 256-256 0 0 85.333333 256 0 0 256 85.333333 0 0-256 256 0 0-85.333333z"  horiz-adv-x="1024" />
      
      <glyph glyph-name="close" unicode="&#59007;" d="M812.8 108.8l-38.4-38.4c-12.8-12.8-25.6-12.8-38.4 0L512 313.6l-217.6-230.4c-6.4-12.8-25.6-12.8-32 0l-32 38.4c-6.4 12.8-6.4 25.6 0 38.4L441.6 384 211.2 620.8c-12.8 12.8-12.8 25.6 0 38.4l38.4 38.4C256 704 275.2 704 281.6 691.2L512 454.4l217.6 230.4c6.4 12.8 25.6 12.8 32 0l32-38.4c6.4-12.8 6.4-25.6 0-38.4L582.4 384l230.4-236.8C819.2 134.4 819.2 121.6 812.8 108.8z"  horiz-adv-x="1024" />
      
      <glyph glyph-name="search" unicode="&#58991;" d="M1024-85.333333c0-23.466667-19.2-42.666667-42.666667-42.666667-12.8 0-23.466667 4.266667-29.866667 12.8L697.6 138.666667C622.933333 78.933333 529.066667 42.666667 426.666667 42.666667 192 42.666667 0 234.666667 0 469.333333 0 704 192 896 426.666667 896s426.666667-192 426.666667-426.666667c0-102.4-36.266667-196.266667-96-270.933333l253.866667-253.866667C1019.733333-61.866667 1024-72.533333 1024-85.333333zM426.666667 810.666667C238.933333 810.666667 85.333333 657.066667 85.333333 469.333333s153.6-341.333333 341.333333-341.333333 341.333333 153.6 341.333333 341.333333S614.4 810.666667 426.666667 810.666667z"  horiz-adv-x="1024" />
      
      <glyph glyph-name="arrow-left" unicode="&#59227;" d="M629.291 55.168000000000006l60.331 60.331-268.501 268.501 268.501 268.501-60.331 60.331-328.832-328.832z"  horiz-adv-x="1024" />
      
      <glyph glyph-name="arrow-right" unicode="&#59228;" d="M689.621 384l-328.832 328.832-60.331-60.331 268.501-268.501-268.501-268.501 60.331-60.331z"  horiz-adv-x="1024" />
      
      <glyph glyph-name="reduce" unicode="&#58900;" d="M192 448l640 0 0-128-640 0 0 128Z"  horiz-adv-x="1024" />
      
      <glyph glyph-name="arrow-down" unicode="&#58901;" d="M848 528a48 48 0 0 1-81.312 34.544l-0.016 0.016-254.784-254.784-251.488 251.488a48 48 0 1 1-71.04-64.464l-0.128-0.128 288-288 0.016 0.016a47.84 47.84 0 0 1 34.544-14.688h0.224a47.84 47.84 0 0 1 34.544 14.688l0.016-0.016 288 288-0.016 0.016c8.32 8.624 13.44 20.368 13.44 33.312z"  horiz-adv-x="1024" />
      
      <glyph glyph-name="arrow-top" unicode="&#59229;" d="M512.197498 579.34199L865.895099 225.64336600000001c18.73776-18.73776 18.73776-49.092092 0-67.828828s-49.092092-18.73776-67.828828 0L512.197498 443.683311 226.328725 157.81453799999997c-18.73776-18.73776-49.092092-18.73776-67.828828 0s-18.73776 49.092092 0 67.828828L512.197498 579.34199z"  horiz-adv-x="1024" />
      
    </font>
</defs>
</svg>
